<svg xmlns="http://www.w3.org/2000/svg" viewBox="0 0 1024 1024"><defs><linearGradient id="linear-gradient" x1="1110.5" x2="1102.1" y1="-177.5" y2="-138.4" gradientTransform="matrix(.5 0 0 -.5 45.5 618.6)" gradientUnits="userSpaceOnUse"><stop offset="0" stop-color="#edce7f"/><stop offset="1" stop-color="#f6edbe"/></linearGradient><style>.cls-1{fill:#ebba53}.cls-2{fill:#245b9d}.cls-3{fill:#2d72b8}.cls-4{fill:#e3987f}.cls-5{fill:#dd7a68}.cls-6{fill:#e9c682}.cls-7{fill:#294488}.cls-8{fill:#d1d0d0}.cls-9{fill:#0b162a}.cls-10{fill:#fefefe}.cls-11{fill:#d2b497}.cls-12{fill:#c98a43}.cls-14{fill:#f3f0cb}.cls-15{fill:#71bad6}</style></defs><g id="Layer_1"><path d="M363.5 81.2c.7 0 1.5-.1 2.2-.2 28.5-1.6 65.4 27.8 86.2 46 6.3 5.5 12.3 11.9 18.6 17.6 34.7-4 69.9-1.1 103.5 8.5 3.5-2.3 7.1-5.5 10.5-7.8 37-25.2 111.3-73.4 136.7-9 16 40.5 10.6 88.9 3.9 130 17.2 35.3 26.6 70.9 23.3 110.5 7.2 2 16.5 3.9 21.5 9.8 5.5 6.4 5.4 18.4-1.7 23.6-6.8 5-16.8 3.3-24.7 2.4l-2.2 6c8.9 5.3 24.3 13 28.1 22.7 1.6 4.1 1.4 8.7-.5 12.6-8.8 18.4-31.5 4-43.1-2.1l-4.2 6.3c5.3 7.3 13.9 16.3 13.4 25.7-.2 4.3-2.2 8.4-5.5 11.2s-7.6 4.2-12 3.8c-7.7-.7-14.3-7.7-19.1-13.3-6.5 6.7-10.2 9.3-17.7 14.7 18.6 21.5 8.6 24.6 19 46.8 9.8 20.9 22.4 42 32.6 62.8 14.1-25.3 28.9-1.5 35.9 13 9.2 15.8 16.4 31.9 23.6 48.6 6.2 14.2 7.4 34.7-15.2 30.4 2.9 5.7 6.6 15.4 8.9 21.7 10.3 27.7 21.9 60.3 23.2 90 .7 15.3-13.2 34.9-23.8 44.8-11.9 10.5-34 28-50.6 27.3-21.2-.9-18.1-23.7-15.1-37.8 1.1-5.2 1.9-13.8 2.1-19.2-11.4 2.2-22.7 7.4-33.5 11.5q-10.95 4.2-22.5 6.6l-2.3 18.9c7.5 6.7 13.2 10.5 18 19.7 8.1 15.7 4.1 37.1-13.5 44.6-21.6 9.1-52.2 4.5-74.4-1.7-6.4-1.8-14.9-7.4-19.4-12.4-6.9-8.6-12-22.2-16.7-32.4l-15-32c-11.4.4-30.5 6.1-41.8 8.6-10.5 2.3-17.8 3.3-28.6 4.3-5.2 13.6-16.5 44.7-26.8 54-17.6 14.5-49.9 16.1-71.7 15.7-21-.3-39.6-14.5-36.4-36.7 2.1-14.8 9.9-21.8 20.8-30.8-1.6-6.8-3.6-13.9-5.2-20.9-10.9-1.3-21.6-3.7-32.1-7-12.9-4.2-24.1-9.2-37.7-11.3.6 3 1.3 7.9 1.6 11 1 10.1 5.8 25.6 2.1 35-5.1 13-21.3 12.3-32.1 7-22-10.9-47.5-30.3-56.1-54.2-1.9-5.2-2.8-10.7-2.8-16.3 0-31.6 22.8-96 36.5-125-6.7.8-13.3-.5-16.7-7-2.8-5.5-1-11.7.8-17.2 6.2-18.6 15.2-36.2 24.5-53.5 3.8-7 8.8-19.6 16-23 3.5-1.6 7.6-1.7 11.2-.3 4.6 1.9 6.7 4.5 8.5 8.9 8.1-15 18.6-34.8 25.4-50 10.8-24.3 2.5-35 23.6-56.7-13.7-10.8-22.7-19.6-32.8-33.9-12.1 9.4-19.2 17.3-35.5 12.3 3.2 5.8 3.8 8.2 5.7 14.8 10 4.4 22.2 10.7 16.8 24.8-2.6 6.7-9.9 9.3-16.2 11.8-3.9 8.3-3.1 19.6-15.2 21.9-15.1 2.9-19.1-8.8-21.7-20.7-5.2-2.8-11.2-4-14.9-9.1-5.7-7.8-3.5-19.6 5.4-24 3.2-1.6 6.4-2.9 9.4-4.9 3.8-14.2 9-26.1 26.4-18.8-8.9-19.7 8.7-29.3 22.2-40.1l-2.1-4.5c-13.3 4.4-40.6 16.8-46.4-4-5.7-20.3 23.8-27.7 38.1-31.8l-.4-8.2c-12-.6-28.9-.6-30.3-16.6-.4-4.7 1.2-9.3 4.3-12.8 6.5-7.1 18.1-6.5 27-6.7 1.3-6.2 2-12.7 3.4-19.2a205 205 0 0 1 23.6-58.5c4.3-7.3 10.1-14.4 14-21.1l.3-.5c-2.5-42.3.2-101.4 26.8-137 7.3-9.8 17.6-16.8 30.1-18.2Z" class="cls-8"/><path d="M361.5 85.6c39.6-3.3 80.6 38.4 107.4 62.9.1 0 .2.2.4.2 29.1-2.1 56.7-2.3 85.4 4 6.5 1.4 13.3 3.4 19.8 4.4h.7c27-20.8 101.3-72 131.7-36.3 24.4 28.7 22.1 83.7 18.2 119.1-1.9 17.1-7.6 25.2 2.3 41 15 29.6 18.7 67.7 17.2 99.5 7.2 1.6 16.8 3.3 22.3 8.7 4.4 4.2 4.4 13.5-.4 17.3-6.4 5.1-18.1 2.7-25.6 1.8q-1.95 6.15-4.2 12.3c8.9 4.8 25 13.2 29.5 22.5 2.6 5.4-1.9 14-7.5 15.4-10.9 2.8-24.6-7.3-34.4-11.8-1.9 3.7-5.1 8.5-7.3 12.4a155 155 0 0 1 11.2 14.8c6.1 9.2 2.8 20.3-9 21.1-7.8.5-15.2-9.2-20.7-14.6-7.4 7.7-15 13.2-23.4 19.6 20 19.7 11 29.3 21.5 50.1 37.1 73 79.8 144.7 101.5 224.2 3 11.1 6.2 25.3 6.9 36.7.9 15.1-10 31-19.9 41.3-9.5 10.2-46.6 40-60.1 25.1-2.1-2.2-3.3-5.1-3.6-8.1-.5-5.3 1.8-17.5 2.7-23.4 1-7.1 1.6-14.2 1.9-21.4-14.6.7-25.9 7.1-39.2 11.9-8.3 3-16 4.9-24.6 7.1-.4 7.4-2.2 16.8-3.1 24.6 12.5 9.2 25 20.9 21.9 38.2-5.7 32.1-51 25.3-74.4 21.2-31.2-6.4-32.7-17.8-44.8-44.2-5.4-12-11.1-23.9-17-35.7-18.3 1-30.8 5.1-48.5 9.1-9 2-17.8 3.2-27 4-3.7 8.7-7.4 17.5-11.1 26.3-13.1 31.3-19 36-53.9 41.2-24.6 3.7-66.2 6-63.2-30.9 1-12.3 11.8-22 20.9-28.8-2-8.5-4.2-17.9-6.4-26.3-11.2-.9-25.7-4.7-36.5-8.2-14.8-4.8-24.2-9.8-40-10.9.4 13.2 3 26.3 4.6 39.2 1.1 9-3.9 17.9-13.7 17.6-16.7-.7-37.1-17-48.8-28-9.9-9.9-22.7-27.1-21.6-41.9 3.9-48.8 24.4-97.6 44.4-141.2 10.2-22.3 20.8-44.4 31.8-66.2 3-5.9 6.4-11.9 9.3-17.7 9.3-18.8 23-39.3 26.5-60.2 3.1-18.2 6-25.2 19.3-38.5-16.6-14.7-24-19.9-37.3-39-8 5.2-18.2 15.5-28.1 15.5-6 0-13.3-6-11.9-12.7 2.5-12.1 16.9-21.2 26.2-27.9-1.2-3.9-3-8.1-4.6-12-.4.2-.9.4-1.3.5-6.9 2.9-29.6 12-37.4 7.6-11-6.2-8-19.2 3.2-24.7 9.1-4.5 19-7.8 29.2-10.8-.6-4.5-.8-10-1.1-14.6-7.5-.8-19.6 0-25.4-4.8-2.7-2.2-4.3-5.5-4.5-8.9-.9-16 20.7-14.4 31.2-14.5 2.6-29.1 13.4-57.6 28.3-82.5 4-6.6 9.8-13.4 13.2-20-2.8-40.3.3-91.7 20.9-127.7 7.1-12.4 16.2-20.4 30.1-24Z" class="cls-10"/><path d="M363.5 96.7c34.3-2.2 78.4 41.5 101.5 64.2 41-5.1 72.4-2.4 111.9 9.2 23.2-17.1 100-76 124.8-38 22.3 34.3 14.5 97.9 7.7 136.7 3 7.2 7 14.8 10.2 22.5 14.4 34.9 15.5 62 12.6 99 9.2 1.6 19.5 3.1 27.5 7.8-7.2.1-20.7-2.1-28.3-3.2-2.3 12.5-4.9 20.3-9.2 32 12.4 5.6 24.5 11.4 34 21.3-12-3.8-24.3-11.2-36.2-16.4-6.2 11-10.4 18.2-18.4 28.2 5.2 5.3 15.3 15 17.5 21.6l-.4.6c-3.6-1.3-15.8-14.3-20.4-18.2-15 16.5-25.7 23.9-44.4 35.2q4.65 3 9 6.3c10.2 7.8 15.7 15.6 17.1 28.5.5 6.3 1.4 10.4 4.2 16 6.4 13 13.5 25.3 20.1 38.2 35.3 69.6 76 140.1 89.5 217.8 3.9 22.5-20.3 44.2-37.2 54.8-3.7 2.3-25.5 16.7-23.8 3.9 2.1-15.4 4.9-30.9 5.3-46.5.2-5.7-5.6-5.2-9.8-5.4-19.3 0-36.2 10.2-54 16.1-7.3 2.4-15 3.4-22.6 4-1.9 13.5-3 27.4-5 41.2 10.5 5.8 25.7 15.3 23.7 29.7-.5 4.1-3.1 8.4-6.6 10.6-13.8 8.6-36.7 4.8-51.9 2.4-8.5-1.3-20.4-4.1-25.7-11.2-7.1-9.6-12-22.8-17-33.8l-17-36.3c-23.2-.5-42.2 7-64.4 11.5-8.6 1.8-16.8 2-25.5 2-2.2 6.6-7.3 17.7-10.1 24.2-3.9 9.1-11.3 30.7-19.5 35.4-16.5 9.3-44.6 11.1-63.3 9.3-4.8-.5-12.5-4.3-15-8.6-8.6-16.7 9.3-28.3 20.9-35.3-3.3-13.9-6.6-27.9-9.7-41.8-12.7-1.7-22.1-3.3-34.5-6.7-22.6-6.2-39.9-17.9-63.7-11.8 1.1 15.5 2.5 30.5 5.3 45.8.4 2 .5 4.2.6 6.2-1.3 2.6-3.5 3.1-6.3 2.4-4.3-1.2-8.7-3.4-12.6-5.7-18-10.7-38.2-26.8-42.8-48.3-1.6-9 2.7-27.7 4.9-37 9.6-41.6 27.2-81.1 45.5-119.4 8.8-18.4 17.9-36.8 27.1-55 10.9-21.2 23.1-42.7 32.1-64.7 2.2-5.5 1.9-13.8 3.5-20.2 4.2-16.6 13.8-23 27.2-31.4-23.2-14.8-40.1-31.6-54.3-55.4-9 5.2-24.4 17.9-32.8 20.7 5.3-8.9 21.4-19.6 30.4-25.4-5.6-11-8.1-18.1-11.5-29.7-7 1.6-37 11.7-40.9 10.5v-.8c6.1-6.4 30.4-13.2 39.5-15.1-2.5-12.4-3.2-21.8-3.3-34.3-4.9-.5-27.1-.5-29-3.6 3.1-2.5 24.3-1.6 29.2-1.2 3.5-35.7 10.4-61 29.9-92 4.1-6.6 9.2-12.7 13.1-19.2-2.4-40.3-1.7-91.8 20.2-127.8 5-8.1 11.7-14.4 21.3-16.3Z"/><path d="M380.9 386.7c33.1 10.1 60.8-.5 86.2-21.6 12.5-10.4 25.8-20.4 42.7-15.3 10 2.8 19.3 12.1 26.2 19.7 21.8 24.4 43.7 38.2 77.7 35.8l1.1.5c3.2 9.7 2.7 14.2 13.3 19.6 5.5 2.8 17 5.1 22.6 2.4 8.3 4.6 16.7 10.8 24.3 16.6 6.4 4.7 11 8.4 16.7 13.6a169 169 0 0 1-46.9 35.9c-66.1 34.2-160.5 33.2-230.7 11.9-41.7-12.6-88.7-40.3-109.3-80.1 4.2-2.6 8.4-5.1 12.6-7.6 9.3-5.1 18.9-9.7 28.6-14.1 12.5 3.9 26.8 1.1 33-11.8.8-1.6.6-4.3 2-5.5Z" class="cls-14"/><path d="M304.7 425.6c4.2-2.6 8.4-5.1 12.6-7.6 34 44.4 93.9 68.1 147.8 75.7 65.7 9.2 143.5 2.5 197.7-39.3 3.1-2.4 9.7-7.6 12.1-10.1 6.4 4.7 11 8.4 16.7 13.6a169 169 0 0 1-46.9 35.9C578.6 528 484.2 527 414 505.7c-41.7-12.6-88.7-40.3-109.3-80.1" class="cls-11"/><path d="M494 356.7c24.4-1.4 41.4 11.2 9.8 23.7-.2 2.8-.2 5.7-.2 8.5 4.8 8.6 12.9 13.6 23.1 13.7 10.3.1 11.8-11.5 17.5-12 6.4 4.4-12.5 31-37.8 11.1-3-2.6-4.2-3.9-6.7-7-11 11.1-30.3 16.1-41.4.8-1.7-2.4-3.1-7.7-2.4-10.6 1.2-1.2.5-.9 2.3-1 2.4 1.6 3.2 6.2 5.9 9.1 7.8 8.7 21.5 6.6 29.3-.9 4.2-4.1 4.2-7 4.3-12.5q-2.7-1.35-5.1-3c-10.7-7.1-14.8-17.6 1.5-19.9Z"/><path d="M495.3 361.2c8.9-.2 31.1 1.6 12.7 12.4-4.8 2.3-7 2.7-11.8 0-6.1-3.4-11.9-11-.8-12.4Z" class="cls-5"/><path d="M329.7 304.5c-.5-10.9-1.6-27.3 6.5-35.8 10.6-11.1 42.1-14.7 56.3-15.2 34-1.3 59.5 12.6 85.7 32 6.9 5.1 17.9 11.7 26.5 13.1 15.2 2.5 34.4-9.3 48-15.8 29.8-15 63.3-17.9 95-6.8 11 3.8 23.6 8 32.5 16.1 9.6 8.7 6.6 28.1 3.1 39.2a97 97 0 0 1-17.9 36.5c-29.9 38-82 41.2-115.5 6.4-7.4-7.7-14.6-16.1-22.7-22.8-15.7-12.9-35.5-13-51.9-1.3-8.9 6.4-17.2 13.3-26.3 19.5-27 18.3-62.4 19-88.2-2.1-19.8-16.2-28.5-37.8-31.2-62.9Z" class="cls-3"/><path d="M329.7 304.5c-.5-10.9-1.6-27.3 6.5-35.8 10.6-11.1 42.1-14.7 56.3-15.2 34-1.3 59.5 12.6 85.7 32 6.9 5.1 17.9 11.7 26.5 13.1 15.2 2.5 34.4-9.3 48-15.8 29.8-15 63.3-17.9 95-6.8 11 3.8 23.6 8 32.5 16.1 9.6 8.7 6.6 28.1 3.1 39.2-2.1-3.7.5-24.5-2.6-30.9-2.2-6.1-9.3-9.5-14.8-11.9-34.4-15.4-68.9-19.4-104.3-4-16.6 7.2-38.7 22.3-57 19.9-14.6-1.9-31.2-16.8-43.5-24.7-6.8-4.3-13.4-8.1-20.8-11.4-8.7-4-17.9-6.7-27.3-8.2-18.8-2.8-46.5-.2-65.1 6.1-13.5 4.6-14.3 18.3-16.2 30.2-.4 2.3-.7 6.2-1.6 8.3h-.6Z" class="cls-15"/><path d="M590.1 285.4a51.76 51.76 0 0 1 58.3 43.9c4 28.2-15.5 54.3-43.6 58.5-28.3 4.2-54.6-15.5-58.7-43.8s15.7-54.6 44-58.5Z"/><path d="M592.4 292.2c5-.6 11.9.4 16.7 1.9a48.4 48.4 0 0 1 28.5 24c5.2 10.1 6.4 22.7 2.8 33.6a43.7 43.7 0 0 1-22.4 25.5 48.8 48.8 0 0 1-37.3 2.1c-11.9-4.1-20.2-11.5-25.7-22.7 4.6 6.1 6.7 8.2 13 12.4 4.2 2.4 7.4 4.1 12.1 5.3 10.6 2.8 21.8 1.4 31.3-4 9.2-5.3 15.8-14.2 18.4-24.5s1.5-20.8-4.1-29.9c-5.5-8.9-14.3-15.2-24.5-17.5s-22.1-.8-31.1 4.6c-3.9 2.3-6.7 4.8-10.4 7.1l-.4.3c9.6-11.3 18-16.7 33-18.1Z" class="cls-14"/><path d="M575.2 307.1c19.9-2.1 22.6 19.5 3.2 27.2-12 1-20-4.8-14.8-18.3 1.8-4.6 6.9-7.4 11.5-9Zm32 38.6c2.3-.4 4.6.4 6 2.2 1.5 1.8 1.9 4.2 1 6.3-.8 2.1-2.7 3.7-5 4a6.38 6.38 0 0 1-2.1-12.6Zm-12-17c1.4-.6 3-.3 4.1.6 1.2 1 1.7 2.5 1.3 4-.3 1.5-1.5 2.6-2.9 3-2 .5-4.1-.6-4.8-2.6s.3-4.2 2.3-5" class="cls-10"/><path d="M410.8 271.8a51.4 51.4 0 1 1-49.4 53.4c-1.1-28.4 21-52.2 49.4-53.3Z"/><path d="M412.4 279.2c18 0 33.9 8.2 41.5 24.9-1.2-1.5-2.5-3.4-3.8-4.8-7.9-8.8-19-13.9-30.8-14.2a39.2 39.2 0 0 0-28.2 10.5c-18.3 17.5-15.1 51.1 7.9 62.9 7 3.6 12.5 4.6 20.3 4.6 13-.4 20.5-4.8 29.9-13.1 0 1.2-1.1 2.2-1.9 3.1-16.3 18.7-46.9 20-65.6 3.9a40 40 0 0 1-13.7-28c-.8-12.5 3.4-24.9 11.6-34.4 8.9-10.2 19.5-14.5 32.8-15.4" class="cls-14"/><path d="M405 293.6c20 1.7 16.8 24.5-1.4 28.3-18.1.9-19-24 1.4-28.3m28.2 40.2c3.5-.4 6.6 2 7.2 5.4.5 3.4-1.7 6.7-5.1 7.4-2.3.5-4.7-.4-6.2-2.2s-1.9-4.3-1-6.5 2.9-3.8 5.2-4Zm-10.6-16.6c1.2-.6 2.7-.5 3.8.3s1.7 2.1 1.6 3.5-1 2.6-2.3 3.1c-1.9.8-4.1 0-4.9-1.9-.9-1.9 0-4.1 1.8-5" class="cls-10"/><path d="M461.9 169.6c40.8-6.2 75.3-3.1 114.7 9.1.2 29.4 15.2 58.2 36 78.3 1 .9 4.2 3.8 4.6 4.7-1.7.3-3.6.1-4.6.3-19.9 0-27.7 1.6-46.4 7.4-17.5 5.4-41.4 23.2-58.5 22.1-16.5-1.1-38.5-22.5-54.4-30.4-17.7-8.8-26.7-11.7-46.3-14.3 1-1.5 4.2-3.5 5.7-4.6 20.8-14.2 38-36.3 46.2-60.2 1.2-3.6 2.9-8.5 3-12.5Z" class="cls-14"/><path d="M585.1 174.7c1.8-1.5 3.7-3 5.5-4.4 18.3-14.2 65.2-44.8 90-42.6 5.6.5 10 4.1 13.3 8.6 5 6.6 8.8 19.2 10.4 27.3 5.4 26.5 3.9 52.1.7 78.7-.7 5.9-4.9 23.4-3.9 27.4 3 11.6 11.1 25.3 14.7 37.5l-9.8-2.8c-4.4-1.2-8.8-2.6-13.1-4-5.7-23.4-44.2-31.9-64.9-36.5-4.5-1-10.1-.7-14.7-1.5l-.8-.2c1-.2 2.9 0 4.6-.3-.4-1-3.6-3.8-4.6-4.7-20.8-20.2-35.8-48.9-36-78.3 3.2 1.1 11.4 4.5 14.4 2.8.7-1.7.6-.8.1-2.8-2-1.4-4-2.7-6-4Z" class="cls-6"/><path d="M704.4 163.5c5.4 26.5 3.9 52.1.7 78.7-.7 5.9-4.9 23.4-3.9 27.4 3 11.6 11.1 25.3 14.7 37.5l-9.8-2.8c1.3-4-14.6-42.9-16.6-49.6 7.9-18.5 12.3-46.9 13.7-67.1.4-5 0-21.2 1.1-24.1Z" class="cls-4"/><path d="M585.1 174.7c1.8-1.5 3.7-3 5.5-4.4 18.3-14.2 65.2-44.8 90-42.6 5.6.5 10 4.1 13.3 8.6-3.4.6-12-4.5-19-2.9-27.5 6.6-62.9 26.7-83.9 45.3-2-1.4-4-2.7-6-4Z" class="cls-14"/><path d="M673.7 143.2c8.1-.3 13.9 3.5 16.9 11.3 6.1 16.2 5.5 35.2 4.3 52.2-.9 13.1-2.4 27-6.2 39.6-.5 1.8-1.6 2.7-3.3 3.4-3.4-1.1-11.7-10.6-14.7-13.7-4.5-4.6-9.2-9-14.2-13a187 187 0 0 0-21.2-15.3c-7.4-4.5-23.4-12.3-28.5-18.2.8-1.2 1.7-2.4 2.6-3.6 13.4-16.6 42.6-40.3 64.3-42.6Z"/><path d="M616.1 188.8c12.2-12.8 26.4-26.2 42.4-33.7 5.2-2.4 14.8-7.1 20.4-4.8 3.8 1.5 4.8 4.5 6.3 7.8 7.7 23.2 2.6 56.8-2.1 80.4-14.9-15.7-20.5-21-37.9-33.5-10.8-6.9-17.7-10.5-29.1-16.2" class="cls-4"/><path d="M616.1 188.8c12.2-12.8 26.4-26.2 42.4-33.7 5.2-2.4 14.8-7.1 20.4-4.8 3.8 1.5 4.8 4.5 6.3 7.8-13 3.7-27.7 21.9-34 33.4-2.3 4.1-4.8 11.5-6 13.5-10.8-6.9-17.7-10.5-29.1-16.2" class="cls-5"/><path d="M355.5 109.9c22.4-22 85.2 37.6 100.5 53.7-2.1.9-4.7 1.9-6.7 2.8-1.4 1.8-1 .8-1.3 2.9 2.4 2.9 10.2.9 13.9.3-.1 4-1.8 8.9-3 12.5-8.2 23.8-25.5 45.9-46.2 60.2-1.5 1.1-4.7 3.1-5.7 4.6-20.7-1.2-42.6 1.2-62.1 8.3-9.5 3.5-16.4 9.3-19.8 19.1l-8.5 1.9c-2.6 1-5 1.4-7.7 1.9 4.4-10.2 13.7-22.1 20-31.5l1.7-3.3c0-4 0-6.3-.4-10.3-.7-12-.9-24-.5-36 1-23.7 8.5-71.3 25.9-87.2Z" class="cls-6"/><path d="M344.6 223.1c-4-28-3.5-70.1 11.5-94.9 9.5-15.7 30.3-2.4 40.4 5.4 7.5 5.8 33.6 32.8 35.4 41.5-1.2 3.8-15.3 7.9-19.3 9.6-8.9 3.7-17.6 8-26 12.8-8.5 5-16.6 10.6-24.3 16.7-4.4 3.4-10.2 8.3-14.7 11.2-1.8-.8-1.7-.8-3-2.4Z"/><path d="M366.6 126.9h.2c.4 0 1.5 0 1.9.1 23.2 5.8 41.2 29 54.4 46.7-14.9 4.9-25.8 9.5-39.3 17.3q-17.7 10.2-33 23.7c-2.9-20-2.5-77 15.9-87.8Z" class="cls-5"/><path d="M355.5 109.9c22.4-22 85.2 37.6 100.5 53.7-2.1.9-4.7 1.9-6.7 2.8-5.1-3.9-9.8-10.7-15.2-15.3-19.3-16.3-43.5-39.3-69.6-41.6-3.1-.3-6.4 1.4-9 .4m-26.7 136.7 2.2.5c.3 1.1-12.8 25.1-14.5 29-2.6 1-5 1.4-7.7 1.9 4.4-10.2 13.7-22.1 20-31.5Z" class="cls-14"/><path d="M344.6 223.1c1.3 1.5 1.2 1.5 3 2.4-2.3 2.9-14.3 15.6-17.1 17.9 0-4 0-6.3-.4-10.3 1.3.9 5.3-3.2 6.7-4.2 2.7-2 4.9-4.1 7.8-5.8" class="cls-12"/><path d="M314.6 610.5c7.8 24.6 13 33.4 35.4 47.5-.8 7.4-1.5 14.8-2.1 22.3-6.5 7.4-6.2 13.7-5.7 23.1.3 6 1 10.9 3.4 16.4 1.7 1.4 3 2.4 4.5 4 1 30.9 5.2 60.9 11.6 91.3.6 3 1.3 6 1.7 9.1-8.2-1.2-16.3-2.7-24.3-4.7-19.8-5.5-37.2-14.6-57.5-15.4-5.6 0-9.1.2-14.6 1.3.1-75.4 19.2-126.5 47.7-194.8Z" class="cls-7"/><path d="M281.5 804c-.9-3.5 1.2-13.7 1.9-17.8 3.7-22.6 7.5-46.8 19.1-66.9 3.8-6.6 8.5-11.7 16.2-13.9 4.2-1.2 8.9-1.2 12.8 1.1 5.9 3.5 8.3 11.1 9.9 17.3.9 3.6 1.3 9.7 1.5 13 .5 9.2-1.9 78.1-3.9 82.6-19.8-5.5-37.2-14.6-57.5-15.4" class="cls-2"/><path d="M653.1 654.7c20.2-16.8 25.5-26.5 32.2-52.3l3.8 8.8c23.3 54.1 44 114.3 48 173.2.2 3.2 1.5 19.7.6 22h-1.2c-24.2-5.2-44 8-65.6 15-6.7 1.7-11.6 2.9-18.6 3.3 3.2-29.1 7.4-74.2 4.2-102.7 7.5-10.8 6.7-31.8-1.4-42.3-.3-7.8-1.3-17.1-2-25" class="cls-7"/><path d="M670.9 821.4c-.5-3.7-.8-8.1-.9-11.9-1.2-30.7-3.4-61.8-.9-92.5.7-8.6 3.5-22.1 12.9-24.7 14.7-4 22.4 14.3 27.1 25 9.6 22.7 15.5 46.4 22.2 70 1.8 6.3 3.2 12.9 5.2 19.1-24.2-5.2-44 7.9-65.6 15" class="cls-2"/><path d="M646.7 526.9c8.1 1.8 16.9 7.2 20.9 14.7 10.6 16.2 12.7 40 8.9 58.4-.2 1.2-.5 2.3-.9 3.5-2.2 15.8-12 31.9-24.6 41.6-23.2 17.7-58.1 18.8-85.4 11.4l4.1-5.2c3.4-5 5.8-9.8 8.4-15.3 6.4-15.6 8.8-29.3 6.1-46-.5-2-1-3.3-.2-5.1 9.1-3.9 26.2-3.2 36.2-2.3 1.3-.1 1 0 2.2-.5-.4-6.4-21.9-6.9-26.8-7 4.1-12.3 11.5-19.8 20.3-28.8-13.5 3.3-19.5 11.2-25.7 23-5.5-6.1-8.7-8.9-15.6-13.2 1.5-1.2 14.4-3.1 18.6-4.9 21.6-9.3 29.3-21.3 53.7-24.4Z" class="cls-3"/><path d="M663.7 620.4c5.7-5.7 7.9-10 12-16.9-2.2 15.8-12 31.9-24.6 41.6-23.2 17.7-58.1 18.8-85.4 11.4l4.1-5.2c3.4-5 5.8-9.8 8.4-15.3 3.9 2.3 18.8 3.9 23.8 4 21.9.6 43-2.6 59.5-17.6.4-.6 1.6-1.6 2.2-2.1Z" class="cls-7"/><path d="M663.7 620.4c5.7-5.7 7.9-10 12-16.9-2.2 15.8-12 31.9-24.6 41.6-23.2 17.7-58.1 18.8-85.4 11.4l4.1-5.2c26.6 5.7 59.1 6.7 80.3-12.9 2.9-2.7 11.3-12 11.4-15.9.4-.6 1.6-1.6 2.2-2.1" class="cls-2"/><path d="M663.7 620.4c0-2.2 3.6-10.1 4.5-12.9 5.8-17.8 6.6-37 1.7-55.1-.7-2.5-2.9-8.8-2.2-10.8 10.6 16.2 12.7 40 8.9 58.4-.2 1.2-.5 2.3-.9 3.5-4.1 6.9-6.3 11.2-12 16.9M584.2 590c-.5-2-1-3.3-.2-5.1 9.1-3.9 26.2-3.2 36.2-2.3-4.5 4.2-27.8 5.9-35.9 7.4Z" class="cls-15"/><path d="M623 730.1c4.6-.9 9-1.8 13.6-2.7 3.1-.7 8.1-2.2 11-2.4.8 1.2.6 1.3.5 2.8-2.8 4.5-27.5 21.4-32 23.5-15.2 10.2-35 21-51.5 28.6-36.3 16.5-74.7 18.6-112.3 4.5-2.3-.9-4.7-1.8-7-2.7-19.4-7.9-41.4-20-59.3-30.9-7.7-4.1-15.4-10.1-22.9-14.7-5.3-3.3-5.1-4.6-5.1-10.5 7.6 2 13.6 3.4 21.4 4.9.6 3.4 1.6 8.7 4.9 10.6 8.9 5 28.5 7.4 38.5 5.9 5.7-.8 9.7-5.4 12.8-9.5 8.6.9 16.2 1.2 24.9 1.3 1.4 3 3 5.6 6.3 6.9 8.3 3 63 3.5 70.3-.3 2.7-1.4 4.6-3.9 6.1-6.4 8-.3 16.9-1.3 24.6-1.4 3 4.3 6.9 8.5 12.9 9.4 9.7 1.3 28.9-.6 37.8-5.4 3.2-1.7 4-6.5 4.4-9.6 0-.5.1-1.1.2-1.6Z" class="cls-1"/><path d="M623 730.1c4.6-.9 9-1.8 13.6-2.7 3.1-.7 8.1-2.2 11-2.4.8 1.2.6 1.3.5 2.8-2.8 4.5-27.5 21.4-32 23.5-2.5-.5-9.6 2-13 2.6-3.6.6-7.3 1-10.9 1.2-11.4.7-17.2-.9-25.8-8.6-4.2 0-19.7.2-22.1 1.8-12.1 8.3-26 6.2-40.3 6.8-10.5.4-24.8.2-35.3-2.1-2.6-.6-6.7-3.7-9-5.4-5.4-.8-14.7-1.2-20.5-1.6-2.7 2.9-5.2 5.8-8.8 7.6-14 7.2-39-4.9-44.3-2.9-7.7-4.1-15.4-10.1-22.9-14.7-5.3-3.3-5.1-4.6-5.1-10.5 7.6 2 13.6 3.4 21.4 4.9.6 3.4 1.6 8.7 4.9 10.6 8.9 5 28.5 7.4 38.5 5.9 5.7-.8 9.7-5.4 12.8-9.5 8.6.9 16.2 1.2 24.9 1.3 1.4 3 3 5.6 6.3 6.9 8.3 3 63 3.5 70.3-.3 2.7-1.4 4.6-3.9 6.1-6.4 8-.3 16.9-1.3 24.6-1.4 3 4.3 6.9 8.5 12.9 9.4 9.7 1.3 28.9-.6 37.8-5.4 3.2-1.7 4-6.5 4.4-9.6 0-.5.1-1.1.2-1.6Zm-177.7 51.6c3.2-.5 16.7 1.1 21 1.4 9.9.7 19.9 1 29.8.9 13.8 0 27.7-.6 41.5-1.6 4.5-.3 24.5-2.8 26.9-2.5-36.3 16.5-74.7 18.6-112.3 4.5-2.3-.9-4.7-1.8-7-2.7Z" class="cls-12"/><path d="M345 520c18.4-1.7 28.8 1.8 43.7 12.7 3.2 2.3 13.8 8.2 15.1 11.2l-7.2 1.1c-3.3-3.6-11-11.8-16.3-11.2l.5-.2-.6.6c1.7 3.5 7.8 8.1 11 12.5-13.2 6.1-32.9 21.7-20.9 37.7l3 2.2c3.7 2.8 3.7 6 9.6 9 6.7 2.4 7 .2 12.1 1.2 1.1.2 5.9 2.7 9.5 3.5v10.9c.4 9 1.4 13.8 4.3 22.4 3 7.4 4.5 10.3 9.1 16.9l4.1 4.7c-8.4 2.4-18.9 3-27.5 3.4-44.6 1.9-73.9-25-74.5-70.4v-.6c-1.6-20.9 4.7-46 18.8-62.2 1.4-2 4.2-4 6.1-5.4Z" class="cls-3"/><path d="M320.1 588.2c1.5 6.2 5.9 16.2 9.8 21.2l.9 1.6c13.1 16.1 23.8 22.2 45.4 25.2 5.5.8 29.2 0 32.7-2.6 3 7.4 4.5 10.3 9.1 16.9l4.1 4.7c-8.4 2.4-18.9 3-27.5 3.4-44.6 1.9-73.9-25-74.5-70.4" class="cls-7"/><path d="M320.1 588.2c1.5 6.2 5.9 16.2 9.8 21.2l.9 1.6c.4 6.5 5.7 13.6 9.3 18.8 19 26.9 49.2 24.9 77.8 20.7l4.1 4.7c-8.4 2.4-18.9 3-27.5 3.4-44.6 1.9-73.9-25-74.5-70.4Z" class="cls-2"/><path d="M338.8 525.4c.1.5.2 1 .3 1.4-2.6 7-7.1 15-9.1 22.1-1.2 4.1-2.2 8.7-2.8 12.4-2.1 11.9-2.1 24 0 35.9.5 2.7 2.7 10.3 2.8 12.1-3.9-5-8.4-15-9.8-21.2v-.6c-1.6-20.9 4.7-46 18.8-62.2Z" class="cls-15"/><path d="M382.9 595.6c6.7 2.4 7 .2 12.1 1.2 1.1.2 5.9 2.7 9.5 3.5v10.9c-.4-2.1-.5-3.3-1-5.3-2.1-.7-7.2-.5-9.7-.9-3.8-.6-7.7-2.5-11.2-4.1l.2-5.4Z" class="cls-7"/><path d="m370.3 584.3 3 2.2c3.7 2.8 3.7 6 9.6 9l-.2 5.4c-5.1-3.2-14.9-9.7-12.4-16.6" class="cls-2"/><path d="m347.2 570.9.5.4c-.8 3.9-8 17.7-11.2 20.1-3.2-4.2 7.1-17.6 10.7-20.5" class="cls-9"/><path d="M337.6 572.2c.9.2.4 0 1.3.8 0 4.1-4.1 11.4-6.5 14.8-5-1.7 2.9-13.2 5.3-15.6Zm-3.4-3.8c.9 4-3.9 9.6-6.3 12.6-1.1-5.6 2.2-9.2 6.3-12.6"/><path d="M503.3 561.8c2.4 1.3 4.9 3.1 7.2 4.6 6.4 4.6 13 10.6 16.9 17.5 2.7 4.3 3.8 8.4 5 13.3-2.5 5.2-35.2 25.5-41.9 29.2-8 4.4-16.1 8.7-24.3 12.7-9 4.6-26.5 11.9-36.2 14.1-1.4-1.4-3.3-3.4-4.5-4.9-4.5-5.3-7.2-10.1-9.9-16.5-3.6-8.7-4.6-18.3-4.8-27.6l.5-5c11.8-6.2 9.8-7.5 17.1-15.9l.5-.6c1.7.7 5-.5 7.3-.7 1.5-.3 2.9-.8 4.1-.2l.3.8.4-1.6c.6-2 .9-3.9 1.3-5.9 16.3-5.3 44.2-11.3 60.8-13.6Z" class="cls-3"/><path d="M436.4 582.2c1.5-.3 2.9-.8 4.1-.2l.3.8c-2.6 17.1-1.3 23.7 6.8 38.6h.3c3.2 5.3 8.2 10.1 13.1 13.7v.2c2.2 1.4 3.3 2.2 5.3 3.8-9 4.6-26.5 11.9-36.2 14.1-1.4-1.4-3.3-3.4-4.5-4.9-4.5-5.3-7.2-10.1-9.9-16.5-3.6-8.7-4.6-18.3-4.8-27.6l.5-5c11.8-6.2 9.8-7.5 17.1-15.9l.5-.6c1.7.7 5-.5 7.3-.7Z" class="cls-1"/><path d="M447.6 621.5h.3c3.2 5.3 8.2 10.1 13.1 13.7v.2c2.2 1.4 3.3 2.2 5.3 3.8-9 4.6-26.5 11.9-36.2 14.1-1.4-1.4-3.3-3.4-4.5-4.9-4.5-5.3-7.2-10.1-9.9-16.5 9.8-2.7 22.7-6.6 32-10.5Z" class="cls-12"/><path d="M461 635.4c2.2 1.4 3.3 2.2 5.3 3.8-9 4.6-26.5 11.9-36.2 14.1-1.4-1.4-3.3-3.4-4.5-4.9 2.4-1.4 12.6-3.5 16-4.9 6.6-2.6 13.1-5.2 19.4-8.3Z" class="cls-6"/><path d="M411.4 599.4c11.8-6.2 9.8-7.5 17.1-15.9l.5-.6c1.7.7 5-.5 7.3-.7-7.8 9.5-13 18.4-25.5 22.2l.5-5Z" class="cls-12"/><path d="M527.4 584c2.7 4.3 3.8 8.4 5 13.3-2.5 5.2-35.2 25.5-41.9 29.2-8 4.4-16.1 8.7-24.3 12.7-2-1.7-3.1-2.4-5.3-3.8v-.2c-5-3.6-9.9-8.4-13.1-13.6 22.5-8.6 42.6-17.6 63.9-28.8 3.7-2 12.9-6.2 15.6-8.8Z" class="cls-7"/><path d="M461 635.2a628 628 0 0 0 38.1-20c8-4.7 22.7-14.2 31.4-19.4.4-.2 1.5 1 2 1.4-2.5 5.2-35.2 25.5-41.9 29.2-8 4.4-16.1 8.7-24.3 12.7-2-1.7-3.1-2.4-5.3-3.8v-.2Z" class="cls-2"/><path d="M503.3 561.8c2.4 1.3 4.9 3.1 7.2 4.6-2.8 1.6-16.3 3-20.8 4.1-15.4 3.8-33.5 6.7-48.4 10.8.6-2 .9-3.9 1.3-5.9 16.3-5.3 44.2-11.3 60.8-13.6Z" class="cls-15"/><path d="M643.1 741.1c1.9-1.3 4.1-2.9 6-4 .2 22.8-.8 44.9-3.1 67.6-.8 8.3-1.4 18.1-2.8 26.3-2.3 1.5-3.4 2.2-5.9 3.3-17.8 6.6-39.2 10.1-58.2 8-5.4-.5-10.3-1-15.6-1.9-3.4-6-7.3-14.5-10.3-20.8-3.9-7.8-7.8-15.4-11.9-23.1 18.5-5.7 26.8-9.6 43.8-18.8a856 856 0 0 0 58-36.6" class="cls-3"/><path d="M541.4 796.5c18.5-5.7 26.8-9.6 43.8-18.8-1.9 5.4-17.2 14.5-18.1 20.2-1.8 11.3 7.8 33.8 12.2 44.4-5.4-.5-10.3-1-15.6-1.9-3.4-6-7.3-14.5-10.3-20.8-3.9-7.8-7.8-15.4-11.9-23.1Z" class="cls-7"/><path d="M643.1 741.1c1.9-1.3 4.1-2.9 6-4 .2 22.8-.8 44.9-3.1 67.6-.8 8.3-1.4 18.1-2.8 26.3-2.3 1.5-3.4 2.2-5.9 3.3 0-8 1.8-21.4 2.3-29.9 1.3-20.7 3.3-42.4 3.3-63.2Z" class="cls-15"/><path d="M263.8 856.5v1.5c-4.8-.4-21.8-13.1-25.9-16.9-8.2-7.7-18.9-19.7-19.2-31.7-.1-6.2 2.3-17.3 3.6-23.5 13.5-61.9 43.5-118.6 71.4-174.9 2-4 15.6-31.1 17.7-33.3l.4.3v1.9c-.2 2.3.3 15.5 0 16.5-6 17.6-15 37.4-21.7 54.6-26.4 67.3-37.5 133.8-26.4 205.7Z" class="cls-3"/><path d="M263.8 856.5v1.5c-4.8-.4-21.8-13.1-25.9-16.9-8.2-7.7-18.9-19.7-19.2-31.7-.1-6.2 2.3-17.3 3.6-23.5 13.5-61.9 43.5-118.6 71.4-174.9 2-4 15.6-31.1 17.7-33.3l.4.3v1.9c-1.6 6-6.3 15.2-9 21-5.8 12.7-11.7 25.3-17.6 37.8-17.3 36.8-56.9 128.1-56.6 166.4 0 7.1 1.9 13.3 5.4 19.5 7.3 12.9 18.7 22.5 29.7 32Z" class="cls-15"/><path d="M358.9 740.8c1.6.9 3.1 1.9 4.6 2.8 18.9 12.5 37.9 24 57.9 34.4 1.7.9 5.7 2.9 7.1 4 15.2 6.9 29.7 12.8 46.1 16.4-5.9 13.1-11.6 26.3-17.2 39.5-5.7 1.4-10.1 2.2-15.9 3.2-19.9 1.3-42.8 1.4-61.4-6.9-2.3-.8-4.3-1.8-6.5-2.8-6.3-26.5-12.6-63.9-14.7-90.7Z" class="cls-3"/><path d="M428.6 782.1c15.2 6.9 29.7 12.8 46.1 16.4-5.9 13.1-11.6 26.3-17.2 39.5-5.7 1.4-10.1 2.2-15.9 3.2 4.2-10.1 9.2-26.8 10.8-37.4-5.4-11.6-20.4-15.5-23.7-21.8Z" class="cls-7"/><path d="M358.9 740.8c1.6.9 3.1 1.9 4.6 2.8 6.1 28.5 8.8 58 16.6 86.2.4 1.4 1.2 3.5 0 4.5-2.3-.8-4.3-1.8-6.5-2.8-6.3-26.5-12.6-63.9-14.7-90.7" class="cls-15"/><path d="M686.5 572.9c3.2 5.5 7 12 9.6 17.8 16.4 30.8 32 61.9 46.9 93.4 16.3 35 31 69.1 39.4 107.1 1.7 7.7 5.4 19 2.8 26.3-6.4 18-24.6 31.7-40.5 41.1-1 .6-1.8.8-2.9.8-.5-1.2-.3-.6-.1-2.2 14.9-88-12.7-172.9-47.3-252.6-2.7-6.2-6.1-13.2-7.7-19.5-.6-2.1-.2-9.8-.2-12.3Z" class="cls-3"/><path d="M696.1 590.7c16.4 30.8 32 61.9 46.9 93.4 16.3 35 31 69.1 39.4 107.1 1.7 7.7 5.4 19 2.8 26.3-6.4 18-24.6 31.7-40.5 41.1-1 .6-1.8.8-2.9.8-.5-1.2-.3-.6-.1-2.2 13-9.6 29.1-23.8 33.1-40.3 2.7-11.1-.6-24.1-3.1-34.9-13-56.3-39.8-108.4-63.3-160.8-2.4-5.4-13.1-26.5-12.3-30.6Z" class="cls-15"/><path d="M450.3 655.3c3.2 3.2 6 6 9.6 8.8 22.6 14.8 51 17.4 74.2 2.3 3.7-2.6 6.5-4.6 9.7-7.9 23.5 7 33.8 9.8 58.6 10.4-1.2 3-3.6 13.6-6.2 13.5-11.4.9-26.1-.7-29 12.7l-24.1 1.6c-1.7-2.1-3.4-4.3-5.9-5.6-7.1-3.6-62.1-3.3-70.6-.2-3 1.1-4.7 3.3-6 6.1-7.9-.9-17.5-1.2-25.6-1.7-5.1-16.3-16-10-29.1-12.9-1.8-.4-1.9-1.4-2.6-2.9 0-1.9-3.3-10.7-4.1-13 22-2.6 29.5-3.4 51-11.3Z" class="cls-3"/><path d="M543.8 658.5c23.5 7 33.8 9.8 58.6 10.4-1.2 3-3.6 13.6-6.2 13.5 0-.9 0-.7-.4-1.5-2-.8-10.2-1.4-13.1-1.8-5.5-.8-11-1.7-16.4-2.9-12.2-2.6-20.5-6.1-32.2-9.8 3.7-2.6 6.5-4.6 9.7-7.9m-93.5-3.2c3.2 3.2 6 6 9.6 8.8-10.5 3.4-19.7 7.7-30.7 10.5-4.8 1.2-23.7 3.7-25.8 5 0-1.9-3.3-10.7-4.1-13 22-2.6 29.5-3.4 51-11.3" class="cls-7"/><path d="m636.1 841.7 6.5-2.7c-1.3 9.2-4.2 30.3-4.2 39 9.4 8.4 17.1 7.5 23.4 21.4 2.8 15.1-25.1 11.9-33.9 11.3-8.6-.6-17.8-1.7-25.9-4.5-12.1-4-15.4-16.5-20.2-26.9l-15-32.3c3.7.6 10.1.9 14 1.3 20.4.6 35.4 0 55.3-6.7Z" class="cls-3"/><path d="M566.7 847.1c3.7.6 10.1.9 14 1.3 3.4 7.2 6 14.7 8.9 22 4.8 12.2 5.3 25.4 19.8 30.1 16.4 5.3 34 5.6 50.8 2.2.7-.1.4 0 1.2 0l.3-3.2c2.8 15.1-25.1 11.9-33.9 11.3-8.6-.6-17.8-1.7-25.9-4.5-12.1-4-15.4-16.5-20.2-26.9z" class="cls-7"/><path d="m636.1 841.7 6.5-2.7c-1.3 9.2-4.2 30.3-4.2 39 9.4 8.4 17.1 7.5 23.4 21.4l-.3 3.2c-1.6-.4-5.9-5.1-7.4-6.7-5.1-5.3-16.2-11.4-20.1-16.9-.4-12.9 1.5-24.7 2-37.4Z" class="cls-15"/><path d="m375.5 839.4 7 2.7c16.9 4.9 36.8 7.4 54.4 5.6 5.6-.5 11.8-1.7 17.4-2.6-4.7 11.4-12.8 27.3-16.5 38.8-8.9 27.3-29.7 23.9-53.7 26.4-7.6.8-21.4.7-24.6-8.2 1.5-12.6 14.9-18 24.1-24.3-.5-7.4-6.3-30.4-8.1-38.4" class="cls-3"/><path d="M437 847.7c5.6-.5 11.8-1.7 17.4-2.6-4.7 11.4-12.8 27.3-16.5 38.8-8.9 27.3-29.7 23.9-53.7 26.4-7.6.8-21.4.7-24.6-8.2l2.1 1.3c2.8 2.2 22.2 1.4 26.6 1.1 11.8-.9 34.9-3.8 38.2-17.8 1.4-5.9 12.6-34.3 12.2-38.4z" class="cls-7"/><path d="m375.5 839.4 7 2.7c2.8 11.1 6.3 26.4 5.9 37.7-11.2 7.8-19.8 11.5-26.8 23.6l-2.1-1.3c1.5-12.6 14.9-18 24.1-24.3-.5-7.4-6.3-30.4-8.1-38.4" class="cls-15"/><path d="M465.9 708.2c0-3.1 0-6.8 1.7-9.4.8-1.2 1.7-1.8 3.1-2.1 7.1-1.4 58.9-2.6 63.4.8 1.6 1.1 2.2 2.7 2.4 4.6 1 5.7.8 15.7.6 21.4 0 4 .6 12-2.6 14.8-4.6 4-54.8 3.5-62.6 1.8-1.8-.4-3-.8-4.1-2.4-2.4-3.4-1.9-10.1-2-14.1-.1-5.6-.1-9.8.2-15.4Z"/><path d="M465.9 708.2c0-3.1 0-6.8 1.7-9.4.8-1.2 1.7-1.8 3.1-2.1 7.1-1.4 58.9-2.6 63.4.8 1.6 1.1 2.2 2.7 2.4 4.6 1 5.7.8 15.7.6 21.4l-8.6.3c0-3.2.3-6.3-.4-9.4-.1-2.5.1-6.7-1.8-8.6-3.7-3.8-34.2-2.9-40.7-2.6-2.9.1-8.1.4-10 2.8-1.3 1.6-1.5 4.7-1 6.6.3 1.1.7 1.9 1.7 2.5 2.9 1.7 6.2.3 8.7 3.3-1.2 3.7-7.7 1.8-10.6 4.5-3.6.6-5.1.7-8.7.8-.1-5.6-.1-9.8.2-15.4Z" class="cls-1"/><path d="M465.9 708.2c0-3.1 0-6.8 1.7-9.4.8-1.2 1.7-1.8 3.1-2.1 7.1-1.4 58.9-2.6 63.4.8 1.6 1.1 2.2 2.7 2.4 4.6 0 2.2.4 2.7-.7 4-2.5-.4-5.3-4.4-10.2-5.2-12.6-2-25.8-1.9-38.6-1.5-9.3.3-14.8 1.7-21.1 8.9Z" class="cls-14"/><path d="M528.1 714.2c.7 3.1.5 6.2.4 9.4l8.6-.3c0 4 .6 12-2.6 14.8-4.6 4-54.8 3.5-62.6 1.8-1.8-.4-3-.8-4.1-2.4-2.4-3.4-1.9-10.1-2-14.1 3.6 0 5.1-.2 8.7-.8.2 9.5 3.4 11.4 13.3 11.2 11.3-.3 28.4 2.1 38.4-2.8 2.3-1.1 1.9-14.2 1.8-16.9Z" class="cls-12"/><path d="M504.8 706.5c7.4-.2 19.7-3.2 19.7 6.9v4.2c0 4 .6 7.8-1.4 11.1-4.7 3-38.1 2.7-43-.2l-.4-1c1.2-2.5 3.3-2.2 5.8-2.5 4.4-1 8.1-2.8 6.8-8.1-1.4-5.9-11.6-3.1-12.9-7.3 2.2-4.3 20.3-3.1 25.6-3.1Z" class="cls-1"/><path d="m523.8 718.5.7-1c0 4 .6 7.8-1.4 11.1-4.7 3-38.1 2.7-43-.2l-.4-1c1.2-2.5 3.3-2.2 5.8-2.5 3.7 4.3 20.2 2.8 25.6 1.6 6-1.3 9.6-3 12.9-8.2Z" class="cls-12"/><path d="M504.8 706.5c7.4-.2 19.7-3.2 19.7 6.9v4.2l-.7 1c-2-2.4-2.6-3.3-5-5.3-3.8-3.1-11.3-3.6-14-6.7Z" class="cls-14"/><path d="M504.8 627c6.8-4.1 13.5-8.5 19.9-13.2 2.9-2.1 10.4-8.1 13.5-9.2 7.4-2.6 15.2-3.2 22.5-7 5.5-2.9 10.5-7.7 15.9-9.9 1.1 1 .8 1.5 1.2 3.4 2.1 15.2-.6 29.3-6.7 43.4-2.7 5.5-5.8 10.7-9.3 15.7l-3.9 4.3c-15.2-4.1-44.4-16.3-57.9-24.5l4.7-3Z" class="cls-12"/><path d="M533.3 621.5c11-11.9 16.9-11.2 30.2-19.2 4.2-2.5 9.5-7.8 13.9-10.9l.4-.3c2.1 15.2-.6 29.3-6.7 43.4-8.9-2.3-30-8.7-37.8-13" class="cls-1"/><path d="m500 630 4.7-3c11.3 6.6 28.1 12.2 40.5 17.1 3.9 1.6 13.8 4.1 16.6 6.1l-3.9 4.3c-15.2-4.1-44.4-16.3-57.9-24.5" class="cls-6"/><path d="M345 520c5.9-4.3 13-5.5 20-4.1 28.3 5.8 42.2 30.8 74 29.3 8.5-.4 16.7-3.2 23.6-8 4.4-3.1 7.6-6.7 11.3-10.7 17.9 1.9 35.8 2.7 53.8 2.6 8.8 12.2 16.4 16.2 30.8 19.3 34.1 7.4 59.4-25.9 88.3-21.5-24.4 3.1-32.1 15.1-53.7 24.4-4.3 1.8-17.2 3.7-18.6 4.9-1.4-.4-6.4-2.5-8.4-3.1a88 88 0 0 0-26.4-4.6c-3.7 0-7.3.2-11 .4a76 76 0 0 0-9.1-4.3c-2.1-.3-7.9-2.2-10.8-2.7-9.1-1.6-16.9-.5-25.8.9-13.1 3.7-17.2 6.2-27.6 14.6-4.6-2.4-9.2-4.5-13.8-6.7-14.5-5-22-7.5-37.8-6.8-1.3-3-11.9-8.9-15.1-11.2-14.9-10.9-25.3-14.3-43.7-12.7" class="cls-7"/><path d="M469.8 540.2c3.3.9 11.4 1.5 13.2 2.6-13.1 3.7-17.2 6.2-27.6 14.6-4.6-2.4-9.2-4.5-13.8-6.7 2-1.9 6.7-1.2 10-2.3 6.4-2.2 12.2-5.2 18.2-8.1Zm60.7 1.6c3.6 1.7 5.8 2.7 8.6 5.5l.4 1.1c-3.7 0-7.3.2-11 .4a76 76 0 0 0-9.1-4.3c1.7-2.7 7.7-2.2 11-2.8Z" class="cls-3"/><path d="m531.9 799.2 1.1.2c3.5 4.8 11.7 22.1 14.2 27.9-24.1.5-43.9 8.8-67.5 12.4-5.1.6-9 .8-14.1 1 5.6-13.7 11.2-26.8 18-39.9 19.7 1.2 28.8 1 48.2-1.6Z" class="cls-7"/><path d="M332.3 521.1c2.6-12.6 9.6-20.1 20.8-26.3 3.1-1.7 6.5-3 9.9-1.8 10.9 6.8 23.1 11.4 35.1 16 5.1 1.9 17.7 5.3 20.9 9 2 .8 3.8 1.9 5.9 1.8l1.2-.6v-1c3 .2 6.9 1.3 9.9 2 9.5 2.3 19.1 3.6 28.8 5.1-2.1 2.1-5 5.3-7.8 6.4-38.5 22-60.4-22-95.8-23.9-11-.6-17.6 2.2-25.6 9.5l-3.4 3.7Z" class="cls-3"/><path d="M363.1 493c10.9 6.8 23.1 11.4 35.1 16 5.1 1.9 17.7 5.3 20.9 9 .9 1.5 1.1 1.9 2.4 3.2-2.5-.1-2.3-.5-4 .6l-.5 1.5c-9.5-4.6-18.9-9.4-28.4-14.1-9.2-4.4-20.1-8.5-29-13 1.2-1 2.4-2.1 3.5-3.1Zm63.1 26.2v-1c3 .2 6.9 1.3 9.9 2 9.5 2.3 19.1 3.6 28.8 5.1-2.1 2.1-5 5.3-7.8 6.4-3.2-1.2-17.9-3.7-22.2-5-.4.1-.8.3-1.2.4-1.6-2.6-5.1-6-7.5-7.9" class="cls-7"/><path d="M332.3 521.1c2.6-12.6 9.6-20.1 20.8-26.3 3.1-1.7 6.5-3 9.9-1.8-1.2 1.1-2.3 2.1-3.5 3.1-8.2 5.7-16.8 11.3-23.4 19.1 0 0-.4 2-.4 2.2z" class="cls-15"/><path d="M419.1 518.1c2 .8 3.8 1.9 5.9 1.8l1.2-.6c2.4 1.9 5.9 5.3 7.5 7.9l-1.2 1.1c-3.8-2.5-6.9-3.9-11.1-7-1.3-1.3-1.5-1.7-2.4-3.2Z" class="cls-9"/><path d="m416.9 523.3.5-1.5c1.7-1.1 1.5-.7 4-.6 4.2 3.1 7.3 4.5 11.1 7-4 1.8-12.5-2.6-15.6-5Z" class="cls-2"/><path d="M511.4 560c9.6-2.8 19.6-4.1 29.6-3.9 16.1.5 29.9 4.8 41.1 16.7 1 1.4 2 2.7 2.8 4.2-21.4 4.9-22.5 15.9-46.5 19.2-1.3-5.9-1.9-8.4-4.5-13.7-6.5-10.7-12.1-15.6-22.4-22.5Z" class="cls-14"/><path d="M582 572.8c1 1.4 2 2.7 2.8 4.2-21.4 4.9-22.5 15.9-46.5 19.2-1.3-5.9-1.9-8.4-4.5-13.7 23.5 1.4 27.7-7.2 48.2-9.6Z" class="cls-11"/><path d="M456.8 652.5c6.5-3.2 17.5-9.1 24.1-11.2 4.5-1.4 12.1 3.2 16-3.9 14 7.2 25.6 12.9 40.3 18.5-2.5 2.2-6 5.1-8.9 6.8-19.7 11.4-44 9.8-62.9-2.4-3.5-2.7-5.5-4.6-8.6-7.8" class="cls-1"/><path d="M456.8 652.5c6.5-3.2 17.5-9.1 24.1-11.2 4.5-1.4 12.1 3.2 16-3.9 14 7.2 25.6 12.9 40.3 18.5-2.5 2.2-6 5.1-8.9 6.8-12.5-6.2-20.4-9.7-33.1-16.7-9.5 4.6-20.7 9.5-29.8 14.3-3.5-2.7-5.5-4.6-8.6-7.8" class="cls-12"/><path d="M693.7 307.6c6.3 1.8 11.8 3.3 18 5.5 2.2.6 4.6 1.3 6.7 2.1 3.9 10.8 5.2 23 6.2 34.5-2.5 1-5.2 2.1-7.7 2.9-13.8 3.9-24 6.7-38 8.9 9.6-19.6 14.1-31.4 14.7-53.9Z" class="cls-3"/><path d="M711.7 313.1c2.2.6 4.6 1.3 6.7 2.1 3.9 10.8 5.2 23 6.2 34.5-2.5 1-5.2 2.1-7.7 2.9.3-11.5-1.7-28.9-5.3-39.5Z" class="cls-7"/><path d="M377 565.9c7.5-10.7 21.4-14.8 33.9-14.6 14 .2 26.7 5 38.6 12 1.2.6 2.2 1.1 3.4 1.8-7.2 1.6-17.8 3.2-23.9 7.2-8.1 5.4-12.1 20.4-23.9 20.3-9.8 0-8.7-8.3-6.5-15.1 1.8-4.4 3.9-5.5 4.3-10.5l-.6-.5c-2.8.9-4.7 3.4-6.5 5.6-4.4 2-7.8 1.7-12.3 0 1.9-3.9 7.3-9 7.1-11.6h-1c-4.6 1.9-5.3 2.9-8.7 6.5-2-.2-2.2-.2-4-1Z" class="cls-14"/><path d="M449.6 563.3c1.2.6 2.2 1.1 3.4 1.8-7.2 1.6-17.8 3.2-23.9 7.2-8.1 5.4-12.1 20.4-23.9 20.3-9.8 0-8.7-8.3-6.5-15.1 11.2 5.6 20.8-6.8 30.6-11.5 6.9-3.3 16.8-1 20.4-2.7Z" class="cls-11"/><path d="m715.6 360.1 9.5-2.8c0 10.8-.3 21.1-1.8 31.8-4.3-.3-9.5-.5-13.7-.9-17.8-.7-29.1-.6-46.5 2.3-2.3-1.6-3.4-2.2-5.3-4.4 6.9-6.1 9.8-9.7 15.6-16.7 14.3-2 28.4-5.1 42.2-9.3" class="cls-14"/><path d="m715.6 360.1 9.5-2.8c0 10.8-.3 21.1-1.8 31.8-4.3-.3-9.5-.5-13.7-.9 3.1-5.4 5.7-21.5 5.9-28.1Z" class="cls-11"/><path d="M644.9 504.1c2.6 1.1 4.4 2.4 6.7 3.8 11.2 6.7 16.5 13.1 19.7 25.7-.7-.8-3.5-3.9-3.9-4.6-5.5-3.9-10.6-7.8-17.3-9.1-37.2-7.7-62 34.7-99.8 18.6 1.8-2.8 12.4-2.2 15.8-2.3 1.3-2.5 2.5-2.2 2.5-4.2 1.3-1 5.2-2.2 6.9-3 17.1-8.2 35.8-10.9 53.3-18.1 4.4-1.8 8.8-3.6 13.2-5.6l2.8-1.2Z" class="cls-3"/><path d="M568.7 531.9c1.3-1 5.2-2.2 6.9-3 17.1-8.2 35.8-10.9 53.3-18.1 4.4-1.8 8.8-3.6 13.2-5.6.8 1.9.9 1.1.3 2.6-10.1 7.8-63.7 27.3-76.2 28.2 1.3-2.5 2.5-2.2 2.5-4.2Z" class="cls-7"/><path d="M644.9 504.1c2.6 1.1 4.4 2.4 6.7 3.8 11.2 6.7 16.5 13.1 19.7 25.7-.7-.8-3.5-3.9-3.9-4.6-2.8-8.3-15.1-13.5-21.2-19-2.8-2.5-2.6-2.8-1.3-5.8Z" class="cls-15"/><path d="M657.8 386.1c1.9 2.1 3 2.8 5.3 4.4-3.1.6-5.7.8-8 3.1v1c2.5 2.2 7.4.9 10.5.3 1.8 4.8 2.4 8.5 2.3 13.7-4.2-1.2-20.9-4.8-24-1.4 1.5 3.7 18.1 5.4 22.5 6-2.5 6.6-5.2 8-10.5 11.8-4-2.5-10.3-6.9-15-7l-1.3.6c-.7 3.2 8.4 7.1 11 8.9-5.6 2.8-17.1.4-22.6-2.4-10.6-5.4-10.1-9.9-13.3-19.6l-1.1-.5c3.5-.8 7.8-1 11.2-1.9 12.4-3.4 22.8-9.6 33-17.2Z" class="cls-4"/><path d="M665.6 394.9c14.2-2 28.5-2.5 42.8-1.5l14.1.7c-1.9 9.2-4.7 21-8.9 29.3-5.5-2.3-11-4.6-16.7-6.5-9.2-3.4-19.4-6.1-29-8.3 0-5.2-.5-8.9-2.3-13.7" class="cls-14"/><path d="m708.4 393.4 14.1.7c-1.9 9.2-4.7 21-8.9 29.3-5.5-2.3-11-4.6-16.7-6.5 5.3-8.2 7.8-14.5 11.5-23.6Z" class="cls-11"/><path d="M338.3 364.7c1.7-1.4 3.9-2.4 5.9-3.4 11.3 12.2 20.9 19.9 36.7 25.4-1.4 1.2-1.2 3.9-2 5.5-6.1 12.9-20.5 15.7-33 11.8 3-1.2 11.2-3.9 12-7.1l-.7-.7c-3.8-1.2-13.8 3.8-17.7 5.5-6.3-6.2-5.9-6.9-10.4-13.9 4.9-1.1 26 .7 28.1-2.2-2.6-5.9-22.7-3.6-28.3-3.2.8-6.7 2-8.6 5.8-13.9 2.5 1.1 8.6 4.6 10 1-1.2-2.7-3.8-3.5-6.5-4.7Z" class="cls-4"/><path d="M310.1 284.2c4.3-1 8.6-1.8 12.9-2.5-2.2 20.9.1 33 5.5 52.6-9.5-3-22.3-8.4-31-13.5l-4.6-2.8c1.9-9.7 7.5-23.8 11.9-32.9l5.3-1Z" class="cls-3"/><path d="m304.8 285.2 5.3-1c.6.8 1.1 1.4.5 2.6-2.1 4.7-4.2 10.3-6.2 14.9-2.2 5.1-4.7 14.7-6.9 19.1l-4.6-2.8c1.9-9.7 7.5-23.8 11.9-32.9Z" class="cls-15"/><path d="M666.4 413.3c10.8 2.4 17.9 4.5 28.3 8.1 5.5 2.1 11.7 4.3 16.9 6.7-5.1 9.6-9.9 17.7-16.9 26.2l-16-13.1c-7.5-5.5-15.1-10.9-22.8-16.1 5.3-3.9 8.1-5.3 10.5-11.8" class="cls-14"/><path d="M694.7 421.4c5.5 2.1 11.7 4.3 16.9 6.7-5.1 9.6-9.9 17.7-16.9 26.2l-16-13.1c5.2-6 11.4-13.3 16-19.8" class="cls-11"/><path d="M291.3 325.2c15.1 8.1 25.4 12.9 41.5 18.7 3.8 6.7 6.5 11.4 11.3 17.4-2 1-4.1 2.1-5.9 3.4-13.8-5.8-32.2-9.9-47.2-11.3-1.3-.2-1.5-.1-2.6-.8-1.3-3.4.3-11.2.9-15.2.5-4.1 1.1-8.2 1.9-12.3Z" class="cls-14"/><path d="M289.4 337.5c1.4 5.8.8 10.4 1.7 16-1.3-.2-1.5-.1-2.6-.8-1.3-3.4.3-11.2.9-15.2" class="cls-11"/><path d="M290.8 389c-1-4.4-5-28.3-2.5-30.8h2.4c16.7 2.6 28.2 5.1 44 10.3-3.8 5.3-5 7.2-5.8 13.9-8.3 1-21.2 2.6-29.4 4.7-2.9.6-5.9 1.3-8.8 1.9Z" class="cls-14"/><path d="M290.8 389c-1-4.4-5-28.3-2.5-30.8h2.4c2.1 7.9 5.3 22.3 8.9 28.9-2.9.6-5.9 1.3-8.8 1.9" class="cls-11"/><path d="M301.5 391.9c9.7-2.1 17.9-3.1 27.7-4.1 4.4 7 4.1 7.7 10.4 13.9-8.8 4.1-16.8 7.9-25.2 12.7l-12 6.9c-5.2-10.3-7.5-16.5-10.5-27.5l9.6-2Z" class="cls-14"/><path d="M301.5 391.9c4.9 8.1 7 14.1 12.8 22.5l-12 6.9c-5.2-10.3-7.5-16.5-10.5-27.5l9.6-2Z" class="cls-11"/><path d="M623.4 698c0-1.6 0-1.7.5-3.2 2.1-1 27.6-7.1 28.6-6.8 1 1.4 1 3.1 1.2 4.9.4 4.4.4 7.5.3 11.9 0 2.2-.2 8-1.5 9.4-4.6 4.7-23.1 8.1-29.4 9.2.4-6.2 0-16.9.8-22.3z" class="cls-1"/><path d="M623.9 701.1c.6 2.2.3 8.6.2 11.3 10.2-2.3 19.9-4 29.9-7.6 0 2.2-.2 8-1.5 9.4-4.6 4.7-23.1 8.1-29.4 9.2.4-6.2 0-16.9.8-22.3" class="cls-12"/><path d="M623.4 698c0-1.6 0-1.7.5-3.2 2.1-1 27.6-7.1 28.6-6.8 1 1.4 1 3.1 1.2 4.9-5.8-1.2-26.1 7.1-30.3 5.1" class="cls-14"/><path d="M385.2 707.1c-4-10.1.2-19.4 12.1-18.8 9.2.5 18.1 1.1 27.2 2.5l-4.8 5.4-.2.6c-1.5 4-1.6 8.6-3.9 11.9-8.5 12.4-22.6 9.4-30.4-1.6" class="cls-1"/><path d="M385.2 707.1c-4-10.1.2-19.4 12.1-18.8 9.2.5 18.1 1.1 27.2 2.5l-4.8 5.4c-10.1-1.6-19.2-2.9-29.5-3.2-1.8 4-3.4 11.7-5 14.1" class="cls-14"/><path d="M397.6 705.3c1.8-.9 3.9-.1 4.8 1.7s.1 3.9-1.7 4.8c-1.8.8-3.9 0-4.8-1.7-.9-1.8-.1-3.9 1.7-4.8"/><path d="M349.4 690.4c1-1.8.6-1.9 2.1-2.6 3.1.8 25.2 6.1 26.8 6.9.4 1.7.3 1.9.3 3.6-.2 4.5-.2 9.1 0 13.6l.6 11.5c-7.6-1.6-21.7-4.2-27.8-8.2-1.2-3.4-1.5-7-1.9-10.5-.2-4.7 0-9.5 0-14.3Z" class="cls-1"/><path d="M349.5 704.7c10.6 3.6 17.9 5.8 29.1 7.3l.6 11.5c-7.6-1.6-21.7-4.2-27.8-8.2-1.2-3.4-1.5-7-1.9-10.5Z" class="cls-12"/><path d="M349.4 690.4c1-1.8.6-1.9 2.1-2.6 3.1.8 25.2 6.1 26.8 6.9.4 1.7.3 1.9.3 3.6-4.6-.8-27.1-5-29.2-7.9" class="cls-14"/><path d="M577.8 691.2c8.6-1.5 25.1-3.1 33.6-2.6 6.8 3.9 8.7 10.7 5.5 17.9-2.8 4.7-5.8 7.4-11.1 9.1-8.8 2.9-18.6-2.1-20.9-11.1l-2.1-7.9-4.9-5.3Z" class="cls-1"/><path d="M577.8 691.2c8.6-1.5 25.1-3.1 33.6-2.6 6.8 3.9 8.7 10.7 5.5 17.9-.4-.7-.4-.5-.5-1.2-1.1-4.5-2.8-7.9-5.2-11.9-5.2-.2-23.6 1.3-28.3 3.1l-4.9-5.3Z" style="fill:url(#linear-gradient)"/><path d="M601.3 704.8c1.3-.5 2.7-.2 3.7.7s1.4 2.3 1 3.6-1.4 2.3-2.7 2.6c-1.8.4-3.7-.7-4.2-2.5s.5-3.7 2.2-4.4"/><path d="M357.7 661.2c14 4.7 21.1 5.2 35.7 5.5.8 2.3 4.1 11.6 5.1 13.3.2 2 .3 1.8-1.7 2-7.6.7-10.5.1-16.4 5.8-8.2-1.5-16.2-3.4-24.2-5.7.2-2.3.2-5.2.3-7.6.2-4.9.6-8.6 1.2-13.4Z" class="cls-12"/><path d="M356.4 674.6c8.7 3.8 20.6 5 30.1 5.3 3.8.1 8.3-.2 11.9.1.2 2 .3 1.8-1.7 2-7.6.7-10.5.1-16.4 5.8-8.2-1.5-16.2-3.4-24.2-5.7.2-2.3.2-5.2.3-7.6Z" class="cls-1"/><path d="M608.5 668.5c14.3-.4 23.6-3.7 36.7-8.6q.45 6.45 1.2 12.9c.2 3 .5 6.2.6 9.2-7.5 1.9-17.4 4.7-25.1 5.7-4.9-3.9-6.4-5-12.8-5.8-2.2 0-2.6.5-4.2-.5-1-2.9 2.3-9.4 3.6-12.9" class="cls-12"/><path d="M646.4 672.8c.2 3 .5 6.2.6 9.2-7.5 1.9-17.4 4.7-25.1 5.7-4.9-3.9-6.4-5-12.8-5.8-2.1-.6-1.7.1-3.8-.8 1.5-1.1 19.6-2.4 23.8-3.4 6.8-1.5 10.6-2.7 17.2-4.9Zm-212 33.6c0-1.6-.3-3.4.4-4.8 4.2 0 20.3 1.1 24.4 1.9.6 1.4.3 3.2.3 4.8v14.1l.5 10.1c-7.7 0-16.8-.7-24.5-1.5-.4-3.3-.4-6.8-.5-10.1-.4-4.9-.4-9.6-.5-14.5Z" class="cls-1"/><path d="M435 720.9c8 .8 16.5 1.8 24.6 1.5l.5 10.1c-7.7 0-16.8-.7-24.5-1.5-.4-3.3-.4-6.8-.5-10.1Z" class="cls-12"/><path d="M434.4 706.4c0-1.6-.3-3.4.4-4.8 4.2 0 20.3 1.1 24.4 1.9.6 1.4.3 3.2.3 4.8-8-.4-17.3-.8-25-1.9Z" class="cls-14"/><path d="M543.5 708.4c0-1.8-.3-3 .3-4.7 3.9-.9 19.2-2 23.3-2 .6.8.4 3.5.4 4.8 0 4.3-.1 8.5-.3 12.8v11.2c-6.7 1.1-16.7 1.6-23.6 1.7v-23.7Z" class="cls-1"/><path d="M567.2 719.2v11.2c-6.7 1.1-16.7 1.6-23.6 1.7V722c5.6.2 18.3-1.7 23.7-2.8Z" class="cls-12"/><path d="M543.5 708.4c0-1.8-.3-3 .3-4.7 3.9-.9 19.2-2 23.3-2 .6.8.4 3.5.4 4.8-7.3 1.1-16.5 1.5-24 1.9" class="cls-14"/><path d="M584.2 714.7c12.7 10.3 20.3 9.2 33.2.4 0 3.4 0 6.4-.2 9.7-.3 2.9-.4 8.9-2.7 10.4-5.7 3.7-24.4 5.4-31.1 5.3.1-3.3.2-6.6.4-9.9 0-5.3.2-10.7.4-16Z" class="cls-12"/><path d="M584.2 714.7c12.7 10.3 20.3 9.2 33.2.4 0 3.4 0 6.4-.2 9.7-11.5 3.7-21.4 5.3-33.4 5.9 0-5.3.2-10.7.4-16" class="cls-1"/><path d="M385 715.3c11.4 8.2 21.7 10.2 33-.3.3 4.9.6 9.7.8 14.6.3 1.4.6 9.1.7 11-7.2 0-24.6-1.1-30.9-5.3-2.5-1.6-2.7-7.3-3-10.2-.2-3.3-.5-6.6-.4-9.9Z" class="cls-12"/><path d="M385 715.3c11.4 8.2 21.7 10.2 33-.3.3 4.9.6 9.7.8 14.6l-.3.8c-3.9 1.5-28-3.4-33-5.2-.2-3.3-.5-6.6-.4-9.9Zm109.7-167.6c8.6-.5 13.4.5 21.7 2.6-14.3 4.3-21.2 5-35.7 7.8-4.2.7-15 4.5-18.2 2.5v-.8c8.4-7.9 20.9-11.2 32.1-12.1Zm78.6 183.1c.5-7.8-.7-29.5 1.3-35l.8-.7c6.5 3.8 5.3 29.3 5 36.3l-.9 8.4c-3.7-2.9-6.1-4-6.2-9" class="cls-6"/><path d="M573.3 730.8c3.3 1.4 3.8 1.7 7.1.6l-.9 8.4c-3.7-2.9-6.1-4-6.2-9" class="cls-12"/><path d="M422.5 730.4c-.3-4.9-.4-9.8-.4-14.8 0-6.9 0-15.6 5.1-20.7h.7c1 2.6 1.2 26.1 1.2 29.9.4 3.3.5 5.3.5 8.6-2.1 2.9-3.2 4.1-6.2 6.2-.3-3-.8-6.3-.8-9.3Z" class="cls-6"/><path d="M429.1 724.9c.4 3.3.5 5.3.5 8.6-2.1 2.9-3.2 4.1-6.2 6.2-.3-3-.8-6.3-.8-9.3.4.5.1.2 1.1.7 1.7-.7 3.3-1.3 5-2.1l.4-4.2Z" class="cls-12"/><path d="M536.1 528.7c11-.3 26.2-1.5 37.2-2.9-1.7 1-6.8 3.7-6.7 5.7l2 .4c0 1.9-1.2 1.7-2.5 4.2-3.5 0-14-.5-15.8 2.3-4.7-.8-10.9-6.3-14.2-9.7" class="cls-7"/><path d="M395.8 572c-3.3 6.6-4 9.5-4.5 16.8-1.6 1.3-3.4 2-5.3 1-7.4-4.2-5.4-12-2.5-17.8 4.5 1.8 7.8 2.1 12.3 0" class="cls-11"/><path d="M429 582.9c3.7-5.4 7.2-5.7 13.4-7.5-.4 2-.7 3.9-1.3 5.9l-.4 1.6-.3-.8c-1.2-.6-2.6-.1-4.1.2-2.3.2-5.7 1.3-7.3.7Z" class="cls-6"/><path d="M381.1 566.9c-2.5 3.9-3.8 8.9-6 11.7h-.8c-1.6-4 .2-9.4 2.7-12.7 1.8.8 2 .8 4 1Z" class="cls-11"/><path d="M243.2 461.6c12.7 0 13.6 10.5 17 20.1 7.6 4.6 19.4 6.4 16.9 18.6-1.8 8.9-9.9 9.5-16.6 13.6-3.1 9.4-3.1 18.5-14.3 20.8-16.8-.1-10.8-12.3-18.3-20.8-3.4-3.1-12.4-5.2-14.2-9.7-5.9-14.7 6.7-17.2 15-21.7l.6-.3c4.1-9.1 1.8-17.4 14-20.7Z" class="cls-10"/><path d="M244 473.1c4.3 1.4 3.7 12.1 6.8 16.1 2.7 3.5 12.4 6.1 14.7 8.8-1.7 1.5-7.5 4-10 5.2-7.6 3.7-6.9 13.4-10.2 20.6-3.8-1.6-3.8-14-7.4-17.6-3.4-3.5-10.1-4.6-13.5-7.7v-.8c4.3-3.5 11.7-3.8 14.5-9.1 2.5-4.8 3.4-10.3 5.2-15.4Z"/><path d="M244.4 485.9c5 6.3 2.4 7.2 11.5 11.7-6.6 3.8-8.2 5.9-11.1 12.6-1-.2-1.4-2-2.1-3.3-2.1-4.4-5.3-6.4-9.2-8.9 6.2-3.6 7.8-5.7 10.8-12.1Z" class="cls-1"/><path d="M260 586.6c9.6-.6 16.6 5.6 12.6 15.1-5.1 12.2-11.7 23.9-17.3 35.9-4.2 8.9-8.3 17.9-12.4 26.9-2 4.4-4.1 9.3-6.2 13.6-.9 1.7-3.5 2.9-5.2 3.7-5 .4-11.2-1.3-13.1-6.3-2.7-7.2 3.2-19.3 5.8-26.1 5.6-14.7 13.2-28.2 20.5-42.1 3-5.6 6.3-12.6 10.1-17.7 1-1.3 3.7-2.4 5.2-3" class="cls-10"/><path d="m262.2 597.4.5.6c-1.2 4.3-11.3 24.5-13.5 29.2-7.1 14.7-13.9 29.6-20.4 44.6l-.8-1c1.1-15.1 25.5-60.2 34.1-73.4Z"/><path d="M744 603.1c2.4-.2 5-.2 7.3.8 7.5 3.2 31.4 53.7 36 64.7 2.5 5.9 7.5 17.9 4.7 24.1-1.4 3.2-4.4 4.6-7.4 5.9-9 1-10.8-2.6-13.9-10.1-2.5-6.1-5.1-12.4-7.9-18.3l-16.3-33.8c-2.6-5.2-10.9-19-10.7-25.1 0-3.7 4.8-6.8 8.3-8.3Z" class="cls-10"/><path d="M746.9 613.4c9 10.6 34.6 61.2 35.8 75.8-2-1.4-3.2-5.2-4.2-7.5-9.3-21.5-19.9-42.3-30-63.4-.9-1.8-1.3-2.9-1.5-4.9Z"/><path d="M770.7 479.7c14.2 1.2 15.5 9.9 19.2 21.5 5.9 2.9 12.2 4.3 15.8 11.1 2.1 3.9 2 8.7.6 12.8-2.8 8.4-9.7 9.5-16.5 13.2-3.4 11.9-3.8 19.4-17.8 21.7-14.1.3-16.4-10.4-19.4-21.3l-1-.4c-10.1-3.7-20.4-10.6-15.7-23.8 2.6-7.4 10.4-9.7 17-12.6 2.3-11.2 4.7-20.2 17.6-22.2Z" class="cls-8"/><path d="M767.6 483.6c14.6-1.7 15.6 9.2 19.2 20 7.5 3 20.3 7.9 16.9 18.9-2.2 7.3-10.6 10-16.8 13.1-3 8.3-2.2 16.6-12.1 20.2-16.3 3.3-14.8-10.9-19.6-20.1-7.4-3.2-19.8-8-16.1-19.2 2.2-6.5 10.4-9.1 16.3-11.7 4.6-8.9 1.1-15.9 12.2-21.3Z" class="cls-10"/><path d="M770.8 494.7c4 2.2 3.7 13.6 6.9 17 3 3.1 9.7 4.6 14 7.5.6 2-10.2 5.3-12.2 7.3-5.4 5.4-4.5 12.5-7.6 18.9-4.8-2.6-3.3-12.6-7-16.8-3-3.5-10.1-5-14.3-8.2 0-2.4 10.7-4.9 13-7.3 4.7-5.2 4.4-12 7.2-18.4"/><path d="M771.2 507.5c3.7 7 3.9 8.2 11.1 12.2-6.6 3.5-8.1 6-11 12.5-.6-.6-.3-.2-.8-1-3.2-5.6-5.1-7.9-10.5-11.1 6.6-3.8 8.2-5.8 11.2-12.5Z" class="cls-1"/></g></svg>